<?xml version="1.0" encoding="UTF-8" standalone="no"?>
<svg
   xmlns:dc="http://purl.org/dc/elements/1.1/"
   xmlns:cc="http://creativecommons.org/ns#"
   xmlns:rdf="http://www.w3.org/1999/02/22-rdf-syntax-ns#"
   xmlns:svg="http://www.w3.org/2000/svg"
   xmlns="http://www.w3.org/2000/svg"
   xmlns:sodipodi="http://sodipodi.sourceforge.net/DTD/sodipodi-0.dtd"
   xmlns:inkscape="http://www.inkscape.org/namespaces/inkscape"
   id="svg8"
   version="1.1"
   viewBox="0 0 58.871956 58.688465"
   height="58.688465mm"
   width="58.871956mm"
   sodipodi:docname="cybersecurity.svg"
   inkscape:version="0.92.3 (2405546, 2018-03-11)">
  <sodipodi:namedview
     pagecolor="#ffffff"
     bordercolor="#666666"
     borderopacity="1"
     objecttolerance="10"
     gridtolerance="10"
     guidetolerance="10"
     inkscape:pageopacity="0"
     inkscape:pageshadow="2"
     inkscape:window-width="1177"
     inkscape:window-height="675"
     id="namedview7"
     showgrid="false"
     inkscape:zoom="1.0639513"
     inkscape:cx="111.25409"
     inkscape:cy="110.90734"
     inkscape:window-x="503"
     inkscape:window-y="181"
     inkscape:window-maximized="0"
     inkscape:current-layer="layer1" />
  <defs
     id="defs2" />
  <metadata
     id="metadata5">
    <rdf:RDF>
      <cc:Work
         rdf:about="">
        <dc:format>image/svg+xml</dc:format>
        <dc:type
           rdf:resource="http://purl.org/dc/dcmitype/StillImage" />
        <dc:title />
      </cc:Work>
    </rdf:RDF>
  </metadata>
  <g
     transform="translate(-6.1950944,-194.58312)"
     id="layer1">
    <path
       id="path985"
       d="m 11.189752,248.82578 c -0.07912,-0.12801 -0.231745,-0.53923 -0.339181,-0.91383 -0.156371,-0.54524 -0.107849,-0.76858 0.243244,-1.11968 0.416783,-0.41678 0.808245,-0.43858 7.876897,-0.43858 h 7.438316 v -1.80322 -1.80324 l -5.240632,-0.0239 c -6.812762,-0.031 -9.81914,-0.21813 -10.071291,-0.62674 -0.292851,-0.47456 -0.537605,-6.71718 -0.354208,-9.03434 0.130038,-1.64298 0.242812,-2.08948 0.5723,-2.26581 0.225691,-0.12078 3.714132,-0.28704 7.752089,-0.36943 l 7.341742,-0.14982 v -1.52297 c 0,-2.45953 0.779151,-2.23606 -7.796243,-2.23606 h -7.522609 l -0.168183,-0.61986 c -0.0925,-0.34093 -0.170508,-2.83177 -0.173348,-5.53523 l -0.0052,-4.91536 0.538213,-0.40602 c 0.690136,-0.52061 3.167643,-0.6926 9.999402,-0.69415 l 5.127931,-8.5e-4 v -1.57783 -1.57783 l -5.466036,-0.0212 c -6.933032,-0.0268 -9.579441,-0.20252 -9.868418,-0.65504 -0.126561,-0.19818 -0.193106,-2.62345 -0.160801,-5.8605 l 0.05511,-5.52238 17.443995,-0.0577 c 12.699794,-0.0421 17.527364,0.0114 17.750531,0.19666 0.242679,0.2014 0.30653,1.36826 0.30653,5.60155 0,5.05225 -0.02471,5.36954 -0.448629,5.75315 -0.4095,0.3706 -1.156634,0.41575 -8.565338,0.51759 l -8.1167,0.11159 -0.003,1.03881 c -0.0017,0.57135 -0.06167,1.25721 -0.133279,1.52413 -0.129265,0.48182 -0.100455,0.48591 4.00399,0.56672 4.374528,0.0862 4.876751,0.20087 5.341097,1.22001 0.163075,0.35789 0.139358,0.6149 -0.08651,0.93737 -0.300642,0.42922 -0.725418,0.44986 -12.549472,0.60991 -6.731066,0.0911 -12.249558,0.18192 -12.263315,0.2018 -0.01376,0.0198 -0.08736,1.46883 -0.163553,3.21989 l -0.138538,3.18373 8.616186,0.10398 c 9.898791,0.11946 10.306698,0.18386 10.306698,1.62728 0,0.64709 -0.09494,0.81397 -0.507158,0.89145 -2.079451,0.39089 -2.281743,0.48003 -2.439425,1.07507 -0.0872,0.32907 -0.10512,1.07232 -0.03981,1.65166 0.125185,1.11064 0.546521,1.46919 1.726425,1.46919 1.085107,0 1.643171,1.38658 0.847776,2.1064 -0.362913,0.32843 -1.16731,0.37305 -6.726716,0.37305 -3.472982,0 -7.547617,0.0663 -9.054744,0.14734 l -2.740232,0.14734 v 3.33946 3.33945 l 9.673754,0.0633 c 5.320564,0.0349 9.744914,0.13455 9.831888,0.22163 0.08697,0.0871 -0.0061,0.32253 -0.206806,0.52325 -0.200716,0.20072 -0.36494,0.57474 -0.36494,0.83115 0,0.70544 -0.660071,1.06429 -1.972281,1.07225 l -1.183368,0.006 v 1.66709 1.66709 l 3.268351,0.16338 c 3.620131,0.18098 3.452346,0.0801 3.016189,1.81231 l -0.252159,1.00142 H 23.239922 c -7.944787,0 -11.954187,-0.0775 -12.05017,-0.23274 z m 32.575345,-43.72094 v -3.38106 H 28.550362 13.335623 v 3.38106 3.38105 H 28.550362 43.765097 Z M 17.38868,205.5455 c -0.21759,-0.52531 -0.223693,-0.8194 -0.02602,-1.25325 0.219357,-0.48144 0.385489,-0.55635 1.10222,-0.49701 0.800903,0.0663 0.847548,0.11378 0.914828,0.93087 0.08544,1.03767 -0.251984,1.50575 -1.085465,1.50575 -0.479825,0 -0.68599,-0.15627 -0.905568,-0.68636 z m 4.303234,0.0924 c -0.559753,-0.71161 -0.562738,-0.74717 -0.11628,-1.38457 0.741643,-1.05885 2.651549,-0.20202 2.203984,0.98876 -0.403862,1.0745 -1.404604,1.26423 -2.087704,0.39581 z m 4.604412,0.4214 c -0.702311,-0.51597 -0.836895,-0.93139 -0.529079,-1.63307 0.275096,-0.62709 0.388529,-0.68607 1.20529,-0.6267 0.810107,0.0588 0.909211,0.13216 0.976468,0.72199 0.141634,1.2421 -0.827605,2.14395 -1.652679,1.53778 z m 20.399023,42.77627 c -1.495391,-0.26478 -3.413938,-0.84682 -3.68506,-1.11795 -0.130327,-0.13033 -0.387096,-0.23696 -0.570599,-0.23696 -0.475464,0 -2.493686,-1.40988 -2.500638,-1.74688 -0.0034,-0.15496 -0.161139,-0.28175 -0.35099,-0.28175 -0.18985,0 -0.410326,-0.16975 -0.489939,-0.37724 -0.07966,-0.20748 -0.304654,-0.55522 -0.500085,-0.77276 -0.654052,-0.72803 -0.868659,-1.02939 -1.228211,-1.72469 -0.196538,-0.38008 -0.486276,-0.73397 -0.643846,-0.78645 -0.223212,-0.0744 -0.303437,-1.98801 -0.36319,-8.66307 l -0.07668,-8.56765 0.786977,-0.37344 c 0.502981,-0.23868 1.364409,-0.37344 2.387086,-0.37344 h 1.600108 v -1.87468 c 0,-1.63041 0.08636,-2.04354 0.662733,-3.17055 0.364511,-0.71274 0.998458,-1.59311 1.408775,-1.95641 1.530209,-1.35481 4.242864,-2.39885 5.636885,-2.16952 2.6246,0.43179 3.546052,0.84823 4.959063,2.24124 1.514182,1.49275 2.209177,3.12013 2.209177,5.17297 v 1.69187 l 1.664267,0.12588 c 1.979188,0.14967 2.958058,0.59266 3.169283,1.43425 0.08408,0.33504 0.08434,3.55904 6.74e-4,7.16443 -0.131418,5.65766 -0.214514,6.75587 -0.606849,8.02038 -0.25002,0.80581 -0.59342,1.62525 -0.763123,1.82098 -0.169701,0.19572 -0.308547,0.47379 -0.308547,0.61795 0,0.14415 -0.202867,0.38878 -0.450811,0.54362 -0.247942,0.15484 -0.450801,0.37435 -0.450801,0.48779 0,0.8766 -3.542738,3.60448 -5.409685,4.16541 -0.557879,0.16761 -1.217178,0.389 -1.465122,0.49196 -0.689491,0.28635 -3.483156,0.41615 -4.620774,0.21471 z m 4.153198,-2.90499 c 0.13319,-0.10293 0.655867,-0.28823 1.161498,-0.41178 1.938508,-0.47366 4.554861,-3.12485 5.418323,-5.49046 0.506159,-1.38671 0.529834,-1.71877 0.533412,-7.48067 l 0.0034,-6.02954 h -9.493529 -9.493537 l 0.08889,6.63231 c 0.07889,5.88328 0.132764,6.68078 0.477399,7.0616 0.213679,0.23612 0.388509,0.525 0.388509,0.64196 0,0.11695 0.32965,0.61321 0.732557,1.1028 l 0.732565,0.89015 0.1127,-0.73497 c 0.183767,-1.19839 0.554718,-0.92882 0.681245,0.49506 0.10356,1.1655 0.210655,1.40255 0.889744,1.96948 0.424606,0.35448 1.132363,0.75426 1.572796,0.88841 0.440425,0.13414 1.003637,0.33405 1.25158,0.44423 0.247951,0.11018 0.704392,0.24751 1.01432,0.3052 0.791185,0.14724 3.636024,-0.0583 3.927797,-0.28378 z m -3.432075,-3.69278 c -0.129627,-0.15619 -0.308181,-0.92476 -0.396789,-1.70793 -0.132815,-1.17394 -0.247125,-1.45664 -0.651122,-1.61024 -0.610493,-0.23211 -1.882093,-1.65941 -2.182624,-2.44987 -0.339745,-0.89358 -0.286356,-2.06595 0.142551,-3.13031 0.329616,-0.81795 0.827426,-1.36888 2.30099,-2.5465 0.149734,-0.11965 0.889157,-0.21756 1.643156,-0.21756 2.245556,0 3.759271,1.0756 4.463553,3.17166 0.385263,1.14659 0.341866,1.61289 -0.281227,3.02181 -0.42619,0.96369 -0.781389,1.38818 -1.561431,1.86601 -1.081724,0.66266 -1.260048,1.00568 -1.264862,2.43305 -0.0017,0.50209 -0.124797,1.03461 -0.273559,1.18338 -0.356137,0.35613 -1.63928,0.3472 -1.938636,-0.0136 z m 2.12852,-5.83697 c 0.141623,-0.11293 0.376037,-0.49146 0.520907,-0.84122 0.220202,-0.53162 0.193538,-0.76147 -0.162565,-1.40129 -0.349865,-0.62862 -0.577787,-0.77812 -1.275586,-0.83666 -1.001124,-0.084 -1.611983,0.36526 -1.826846,1.34353 -0.336423,1.53171 1.52393,2.70839 2.74409,1.73564 z m 3.687054,-14.06165 c 0,-1.86127 -0.546208,-2.9932 -1.890783,-3.91828 -1.472805,-1.01332 -2.735341,-1.29227 -4.068636,-0.89892 -1.119336,0.33022 -2.642696,1.46515 -3.100968,2.31028 -0.14532,0.26799 -0.323193,1.27336 -0.395273,2.23415 l -0.131051,1.74688 h 4.793356 4.793356 z m -23.441965,22.32394 c 0,-0.48629 0.091,-0.75928 0.225403,-0.67622 0.123972,0.0765 0.225403,0.38092 0.225403,0.67622 0,0.29529 -0.101431,0.59959 -0.225403,0.67621 -0.134403,0.0831 -0.225403,-0.18994 -0.225403,-0.67621 z m -11.985123,-6.88297 c -0.500121,-0.29182 -0.731245,-1.42405 -0.412334,-2.01993 0.201758,-0.377 0.428942,-0.4623 1.085672,-0.40769 0.79998,0.0666 0.833032,0.10353 0.898799,1.00591 0.05568,0.76388 -0.02641,1.00315 -0.444609,1.29607 -0.592742,0.41518 -0.625151,0.41878 -1.127528,0.12564 z m 3.870596,-0.4426 c -0.544868,-0.54487 -0.563813,-0.86537 -0.09105,-1.54034 0.888184,-1.26806 2.868949,0.14373 2.019838,1.43964 -0.444536,0.67845 -1.306059,0.72342 -1.928788,0.1007 z m 4.182746,-0.0502 c -0.192987,-0.27552 -0.350886,-0.66553 -0.350886,-0.86668 0,-0.6245 0.791315,-1.15003 1.613092,-1.07129 0.695644,0.0666 0.759101,0.13846 0.824541,0.93319 0.03899,0.47354 -0.0495,1.00606 -0.196652,1.18337 -0.415036,0.50009 -1.485581,0.39894 -1.890095,-0.17859 z m -8.568212,-15.92227 c -0.193992,-0.61122 0.06095,-1.50129 0.559166,-1.95216 0.389052,-0.35209 0.453074,-0.34954 0.994434,0.0398 0.478161,0.34385 0.56876,0.5726 0.521869,1.31769 -0.05577,0.88612 -0.07288,0.90278 -0.995698,0.97 -0.770253,0.0561 -0.964256,-0.0113 -1.079771,-0.37529 z m 4.205143,0.14912 c -0.148766,-0.14877 -0.270484,-0.46086 -0.270484,-0.69355 0,-0.57821 1.229218,-1.77394 1.655475,-1.61037 0.484516,0.18593 1.052702,1.49865 0.900529,2.08056 -0.106933,0.40891 -0.291317,0.49384 -1.07209,0.49384 -0.51862,0 -1.064663,-0.12172 -1.21343,-0.27048 z m 4.240903,-0.28683 c -0.275972,-0.51566 -0.259817,-0.6462 0.147789,-1.19419 0.251697,-0.33837 0.655915,-0.64505 0.898261,-0.68151 0.666849,-0.10029 1.248843,0.68291 1.164172,1.56667 -0.06761,0.70568 -0.130381,0.75792 -0.986293,0.82081 -0.785315,0.0576 -0.957736,-0.0144 -1.223929,-0.51178 z"
       style="fill:#000000;stroke-width:0.22540356"
       inkscape:connector-curvature="0" />
  </g>
</svg>
