<?xml version="1.0" encoding="UTF-8" standalone="no"?>
<svg
   xmlns:dc="http://purl.org/dc/elements/1.1/"
   xmlns:cc="http://creativecommons.org/ns#"
   xmlns:rdf="http://www.w3.org/1999/02/22-rdf-syntax-ns#"
   xmlns:svg="http://www.w3.org/2000/svg"
   xmlns="http://www.w3.org/2000/svg"
   xmlns:sodipodi="http://sodipodi.sourceforge.net/DTD/sodipodi-0.dtd"
   xmlns:inkscape="http://www.inkscape.org/namespaces/inkscape"
   height="479pt"
   viewBox="-63 1 479 479.99991"
   width="479pt"
   version="1.1"
   id="svg6"
   sodipodi:docname="iot.svg"
   inkscape:export-filename="/home/matt/dev/renci/fabric/src/images/capabilities/iot.png"
   inkscape:export-xdpi="12.025052"
   inkscape:export-ydpi="12.025052"
   inkscape:version="0.92.3 (2405546, 2018-03-11)">
  <metadata
     id="metadata12">
    <rdf:RDF>
      <cc:Work
         rdf:about="">
        <dc:format>image/svg+xml</dc:format>
        <dc:type
           rdf:resource="http://purl.org/dc/dcmitype/StillImage" />
      </cc:Work>
    </rdf:RDF>
  </metadata>
  <defs
     id="defs10" />
  <sodipodi:namedview
     pagecolor="#ffffff"
     bordercolor="#666666"
     borderopacity="1"
     objecttolerance="10"
     gridtolerance="10"
     guidetolerance="10"
     inkscape:pageopacity="0"
     inkscape:pageshadow="2"
     inkscape:window-width="1774"
     inkscape:window-height="879"
     id="namedview8"
     showgrid="false"
     inkscape:zoom="0.36951983"
     inkscape:cx="-313.92091"
     inkscape:cy="326.51521"
     inkscape:window-x="43"
     inkscape:window-y="27"
     inkscape:window-maximized="0"
     inkscape:current-layer="svg6" />
  <path
     inkscape:connector-curvature="0"
     d="m 355.78965,152.18585 c -0.04,-36.08743 -29.28812,-65.335664 -65.37558,-65.375549 H 265.53113 C 261.30152,40.523869 222.48877,5.0908199 176.00682,5.0908199 c -46.48193,0 -85.294694,35.4330491 -89.524317,81.7194811 h -24.88293 c -36.10739,0 -65.375568,29.268159 -65.375568,65.375549 0,36.10741 29.268178,65.37558 65.375568,65.37558 h 89.891417 v -16.3439 H 61.599573 c -27.077551,0 -49.031676,-21.95414 -49.031676,-49.03168 0,-27.07755 21.954125,-49.03166 49.031676,-49.03166 h 40.859737 v -8.171952 c 0,-40.620322 32.92718,-73.547533 73.54751,-73.547533 40.62032,0 73.54753,32.927211 73.54753,73.547533 v 8.171952 h 40.85972 c 27.07755,0 49.03169,21.95411 49.03169,49.03166 0,27.07754 -21.95414,49.03168 -49.03169,49.03168 h -89.89141 v 16.3439 h 89.89141 c 36.08746,-0.04 65.33567,-29.28814 65.37558,-65.37558 z m 0,0"
     id="path2"
     style="stroke:#000000;stroke-width:1.0214932;stroke-opacity:1"
     inkscape:export-xdpi="12.025052"
     inkscape:export-ydpi="12.025052" />
  <path
     inkscape:connector-curvature="0"
     d="M 323.10187,456.39722 V 317.47413 c -0.0159,-13.53478 -10.98107,-24.49989 -24.51585,-24.51584 h -16.34388 v -17.8482 c 10.75359,-3.78272 17.46911,-14.49244 16.18826,-25.82064 -1.28085,-11.32818 -10.22291,-20.27026 -21.55111,-21.55112 -11.3282,-1.28084 -22.03792,5.43468 -25.82064,16.18828 h -66.87987 v -102.8516 l 18.738,18.73801 11.55566,-11.55564 -38.46562,-38.46561 -38.4656,38.46561 11.55564,11.55564 18.73802,-18.73801 v 102.8516 h -66.87989 c -3.782712,-10.7536 -14.492434,-17.47312 -25.820633,-16.18828 -11.3282,1.28086 -20.270256,10.21893 -21.551109,21.54714 -1.280854,11.3282 5.434662,22.0419 16.188284,25.82063 v 26.02414 H 20.739843 c -13.5347854,0.0159 -24.4998778,10.98105 -24.515838,24.51584 v 98.06335 c 0.015971,13.53479 10.9810526,24.49986 24.515838,24.51583 h 49.031689 v 16.3439 H 45.255683 v 16.34389 H 110.63126 V 464.56916 H 86.115419 v -16.3439 h 49.031671 c 13.53478,-0.0159 24.49988,-10.98104 24.51584,-24.51583 v -98.06335 c -0.0159,-13.53479 -10.98106,-24.49988 -24.51584,-24.51584 H 86.115419 v -26.02015 c 6.923006,-2.46995 12.369639,-7.91657 14.839571,-14.83957 h 150.10366 c 2.46994,6.923 7.91659,12.36962 14.83959,14.83558 v 17.85219 h -49.03169 c -13.53478,0.0159 -24.49987,10.98106 -24.51583,24.51584 v 138.92309 c 0.0159,13.53478 10.98105,24.49987 24.51583,24.51583 h 81.71947 c 13.53478,-0.0159 24.49988,-10.98105 24.51585,-24.51583 z M 143.31904,423.70943 c -0.003,4.51293 -3.65901,8.16796 -8.17195,8.17196 H 20.739843 c -4.512924,-0.003 -8.167955,-3.65903 -8.171946,-8.17196 v -16.3439 H 143.31904 Z m -8.17195,-106.2353 c 4.51294,0.003 8.16797,3.65901 8.17195,8.17195 v 65.37557 H 12.567897 v -65.37557 c 0.0041,-4.51294 3.659022,-8.16796 8.171946,-8.17195 z M 77.943471,260.27052 c -4.512937,0 -8.171939,-3.65903 -8.171939,-8.17197 0,-4.51292 3.659002,-8.17194 8.171939,-8.17194 4.512927,0 8.171948,3.65902 8.171948,8.17194 -0.0031,4.51294 -3.659021,8.16797 -8.171948,8.17197 z M 274.07019,243.92661 c 4.51292,0 8.17195,3.65902 8.17195,8.17194 0,4.51294 -3.65903,8.17197 -8.17195,8.17197 -4.51294,0 -8.17195,-3.65903 -8.17195,-8.17197 0.003,-4.51292 3.65901,-8.16794 8.17195,-8.17194 z m -65.37557,73.54752 c 0.003,-4.51292 3.65902,-8.16796 8.17193,-8.17194 h 81.71947 c 4.51293,0.003 8.16795,3.65902 8.17195,8.17194 v 106.2353 h -98.06335 z m 0,138.92309 v -16.3439 h 98.06335 v 16.3439 c -0.003,4.51294 -3.65902,8.16794 -8.17195,8.17194 h -81.71947 c -4.51291,-0.003 -8.16794,-3.659 -8.17193,-8.17194 z m 0,0"
     id="path4"
     style="stroke:#000000;stroke-width:1.0214932;stroke-opacity:1" />
</svg>
