<?xml version="1.0" encoding="UTF-8" standalone="no"?>
<svg
   xmlns:dc="http://purl.org/dc/elements/1.1/"
   xmlns:cc="http://creativecommons.org/ns#"
   xmlns:rdf="http://www.w3.org/1999/02/22-rdf-syntax-ns#"
   xmlns:svg="http://www.w3.org/2000/svg"
   xmlns="http://www.w3.org/2000/svg"
   width="172.22197mm"
   height="90mm"
   viewBox="0 0 172.22197 90"
   version="1.1"
   id="svg1789">
  <defs
     id="defs1783" />
  <metadata
     id="metadata1786">
    <rdf:RDF>
      <cc:Work
         rdf:about="">
        <dc:format>image/svg+xml</dc:format>
        <dc:type
           rdf:resource="http://purl.org/dc/dcmitype/StillImage" />
        <dc:title></dc:title>
      </cc:Work>
    </rdf:RDF>
  </metadata>
  <g
     id="layer1"
     transform="translate(-34.085445,44.916629)">
    <g
       transform="matrix(0.35277777,0,0,-0.35277777,-18.208019,136.07655)"
       id="g1693">
      <path
         d="m 159.7925,366.0601 c 9.838,12.901 22.155,23.063 37.17,29.387 0.769,0.324 0.334,1.399 -0.448,1.065 -14.919,-6.377 -28.18,-16.63 -37.419,-30.045 -0.3,-0.435 0.39,-0.809 0.697,-0.407"
         style="fill:#414142;fill-opacity:1;fill-rule:nonzero;stroke:none"
         id="path44" />
      <path
         d="m 171.6577,371.1162 c 9.258,10.604 20.001,19.104 32.963,24.736 0.691,0.301 0.094,1.315 -0.593,1.015 -12.819,-5.605 -24.444,-14.119 -32.941,-25.311 -0.249,-0.327 0.3,-0.75 0.571,-0.44"
         style="fill:#414142;fill-opacity:1;fill-rule:nonzero;stroke:none"
         id="path48" />
      <path
         d="m 182.9893,374.0747 c 9.219,7.817 18.558,13.862 30.212,17.43 0.739,0.226 0.428,1.381 -0.32,1.162 -11.271,-3.305 -22.46,-9.282 -30.455,-18.029 -0.351,-0.382 0.174,-0.892 0.563,-0.563"
         style="fill:#414142;fill-opacity:1;fill-rule:nonzero;stroke:none"
         id="path52" />
      <path
         d="m 192.1626,375.7148 c 9.071,5.638 18.662,9.261 29.171,11.099 0.785,0.137 0.437,1.287 -0.326,1.181 -10.512,-1.462 -20.584,-5.467 -29.262,-11.566 -0.429,-0.301 -0.042,-0.999 0.417,-0.714"
         style="fill:#414142;fill-opacity:1;fill-rule:nonzero;stroke:none"
         id="path56" />
      <path
         d="m 199.9805,376.1157 c 9.534,1.683 18.875,3.634 28.54,4.564 0.846,0.082 0.855,1.416 0,1.334 -9.631,-0.927 -19.493,-2.242 -28.739,-5.178 -0.464,-0.147 -0.27,-0.803 0.199,-0.72"
         style="fill:#414142;fill-opacity:1;fill-rule:nonzero;stroke:none"
         id="path60" />
      <path
         d="m 211.8481,375.3032 c 7.133,0.366 14.207,0.575 21.339,0.057 0.862,-0.063 0.861,1.287 0,1.343 -7.164,0.475 -14.334,0.454 -21.446,-0.608 -0.45,-0.066 -0.344,-0.815 0.107,-0.792"
         style="fill:#414142;fill-opacity:1;fill-rule:nonzero;stroke:none"
         id="path64" />
      <path
         d="m 153.707,369.624 c 22.219,7.177 45.2,8.799 68.026,3.436 0.729,-0.172 1.04,0.951 0.31,1.123 -22.57,5.303 -46.76,4.434 -68.556,-3.762 -0.489,-0.184 -0.294,-0.963 0.22,-0.797"
         style="fill:#414142;fill-opacity:1;fill-rule:nonzero;stroke:none"
         id="path68" />
      <path
         d="m 162.6396,379.1455 c 24.717,4.861 49.344,2.863 72.147,-8.346 0.74,-0.363 1.392,0.749 0.648,1.109 -22.27,10.787 -48.909,14.541 -73.002,7.986 -0.486,-0.132 -0.279,-0.845 0.207,-0.749"
         style="fill:#414142;fill-opacity:1;fill-rule:nonzero;stroke:none"
         id="path72" />
      <path
         d="m 174.6255,387.2197 c 22.197,3.683 44.777,-1.85 61.895,-16.725 0.675,-0.587 1.667,0.403 0.985,0.986 -17.159,14.65 -40.887,21.441 -63.097,16.527 -0.52,-0.116 -0.292,-0.872 0.217,-0.788"
         style="fill:#414142;fill-opacity:1;fill-rule:nonzero;stroke:none"
         id="path76" />
      <path
         d="m 189.54,393.7393 c 19.291,-1.033 36.91,-9.646 49.146,-24.659 0.631,-0.774 1.729,0.33 1.098,1.097 -12.267,14.935 -30.868,24.227 -50.244,24.479 -0.593,0.007 -0.585,-0.886 0,-0.917"
         style="fill:#414142;fill-opacity:1;fill-rule:nonzero;stroke:none"
         id="path80" />
      <path
         d="m 593.8037,327.7471 c 13.661,8.447 25.858,19.447 35.863,31.999 0.452,0.567 -0.339,1.382 -0.809,0.809 -10.285,-12.512 -22.047,-23.038 -35.472,-32.095 -0.436,-0.294 -0.04,-0.996 0.418,-0.713"
         style="fill:#414142;fill-opacity:1;fill-rule:nonzero;stroke:none"
         id="path84" />
      <path
         d="m 576.0098,324.6377 c 15.357,6.855 29.135,17.262 40.872,29.222 0.57,0.581 -0.326,1.478 -0.893,0.894 -11.825,-12.168 -25.43,-21.534 -40.356,-29.471 -0.433,-0.23 -0.053,-0.837 0.377,-0.645"
         style="fill:#414142;fill-opacity:1;fill-rule:nonzero;stroke:none"
         id="path88" />
      <path
         d="m 556.8916,326.8384 c 17.982,0.938 35.775,10.286 47.347,23.977 0.531,0.628 -0.349,1.539 -0.915,0.915 -12.512,-13.787 -28.19,-21.536 -46.537,-24.11 -0.445,-0.062 -0.34,-0.805 0.105,-0.782"
         style="fill:#414142;fill-opacity:1;fill-rule:nonzero;stroke:none"
         id="path92" />
      <path
         d="m 547.208,333.8701 c 16.207,-0.882 32.515,4.284 46.16,12.829 0.765,0.478 0.058,1.696 -0.708,1.211 -13.928,-8.814 -29.107,-12.58 -45.452,-13.204 -0.54,-0.02 -0.537,-0.807 0,-0.836"
         style="fill:#414142;fill-opacity:1;fill-rule:nonzero;stroke:none"
         id="path96" />
      <path
         d="m 601.2041,347.9448 c 9.227,-0.005 18.363,2.353 26.6,6.461 0.644,0.321 0.08,1.275 -0.563,0.963 -8.38,-4.081 -16.75,-6.093 -26.037,-6.687 -0.47,-0.029 -0.479,-0.737 0,-0.737"
         style="fill:#414142;fill-opacity:1;fill-rule:nonzero;stroke:none"
         id="path100" />
      <path
         d="m 584.0391,345.4438 c 13.716,-1.89 27.609,-0.533 40.624,4.246 0.773,0.284 0.444,1.529 -0.345,1.248 -13.005,-4.646 -26.436,-6.282 -40.167,-4.662 -0.468,0.055 -0.585,-0.767 -0.112,-0.832"
         style="fill:#414142;fill-opacity:1;fill-rule:nonzero;stroke:none"
         id="path104" />
      <path
         d="m 574.0205,341.9106 c 12.493,-5.543 27.563,-6.615 40.665,-2.596 0.747,0.23 0.439,1.347 -0.323,1.172 -13.821,-3.181 -26.636,-2.576 -40.03,2.161 -0.426,0.151 -0.731,-0.551 -0.312,-0.737"
         style="fill:#414142;fill-opacity:1;fill-rule:nonzero;stroke:none"
         id="path108" />
      <path
         d="m 562.5107,338.9448 c 11.129,-7.474 25.109,-10.32 38.335,-8.578 0.814,0.107 0.84,1.399 0,1.304 -13.563,-1.544 -26.053,1.361 -37.933,7.962 -0.452,0.251 -0.825,-0.404 -0.402,-0.688"
         style="fill:#414142;fill-opacity:1;fill-rule:nonzero;stroke:none"
         id="path112" />
      <path
         d="m 552.9209,336.5874 c 7.611,-7.813 18.102,-11.7 28.955,-11.22 0.899,0.04 0.903,1.446 0,1.404 -10.683,-0.494 -20.448,3.28 -28.321,10.45 -0.425,0.387 -1.039,-0.218 -0.634,-0.634"
         style="fill:#414142;fill-opacity:1;fill-rule:nonzero;stroke:none"
         id="path116" />
      <path
         d="m 251.4312,382.7324 c 41.75,6.294 81.92,23.411 116.213,47.879 0.642,0.458 0.025,1.53 -0.623,1.066 -34.622,-24.79 -74.005,-40.575 -115.82,-48.11 -0.554,-0.099 -0.312,-0.917 0.23,-0.835"
         style="fill:#414142;fill-opacity:1;fill-rule:nonzero;stroke:none"
         id="path120" />
      <path
         d="m 272.2085,371.7559 c 19.365,0.522 37.088,10.245 52.814,20.771 17.13,11.467 32.994,24.718 47.47,39.386 0.594,0.602 -0.334,1.532 -0.929,0.929 -13.975,-14.176 -29.24,-27.018 -45.699,-38.224 -16.3,-11.097 -33.715,-20.315 -53.656,-22.105 -0.477,-0.043 -0.495,-0.77 0,-0.757"
         style="fill:#414142;fill-opacity:1;fill-rule:nonzero;stroke:none"
         id="path124" />
      <path
         d="m 293.0825,358.7075 c 19.238,4.662 35.021,17.757 49.12,31.044 16.645,15.688 32.076,32.603 46.365,50.458 0.552,0.689 -0.424,1.674 -0.978,0.978 -13.491,-16.965 -28.097,-33.027 -43.745,-48.028 -14.93,-14.313 -30.903,-27.47 -50.995,-33.607 -0.539,-0.164 -0.317,-0.978 0.233,-0.845"
         style="fill:#414142;fill-opacity:1;fill-rule:nonzero;stroke:none"
         id="path128" />
      <path
         d="m 313.8667,350.7261 c 9.407,1.632 17.221,7.482 23.628,14.303 8.148,8.674 15.204,18.489 22.612,27.79 15.724,19.738 31.446,39.478 47.168,59.218 0.568,0.714 -0.44,1.735 -1.014,1.013 -14.886,-18.709 -29.773,-37.418 -44.657,-56.129 -6.995,-8.794 -13.831,-17.749 -21.055,-26.357 -7.315,-8.715 -15.63,-16.174 -26.918,-18.983 -0.562,-0.14 -0.317,-0.951 0.236,-0.855"
         style="fill:#414142;fill-opacity:1;fill-rule:nonzero;stroke:none"
         id="path132" />
      <path
         d="m 337.1108,349.0435 c 19.727,15.309 33.109,38.623 46.783,59.053 14.19,21.204 29.679,42.244 51.613,56.011 0.812,0.51 0.063,1.802 -0.753,1.29 -20.694,-12.987 -35.792,-32.423 -49.35,-52.38 -7.293,-10.736 -14.261,-21.693 -21.856,-32.222 -8.168,-11.322 -17.234,-21.268 -27.092,-31.097 -0.435,-0.434 0.198,-1.009 0.655,-0.655"
         style="fill:#414142;fill-opacity:1;fill-rule:nonzero;stroke:none"
         id="path136" />
      <path
         d="m 355.6509,352.3691 c 34.608,34.752 49.148,86.1 92.164,113.082 0.785,0.493 0.061,1.742 -0.729,1.246 -19.646,-12.326 -34.329,-30.477 -47.144,-49.511 -14.664,-21.776 -27.748,-44.188 -45.016,-64.091 -0.429,-0.494 0.254,-1.199 0.725,-0.726"
         style="fill:#414142;fill-opacity:1;fill-rule:nonzero;stroke:none"
         id="path140" />
      <path
         d="m 376.2812,360.0562 c 12.156,18.575 22.766,38.031 35.722,56.11 6.655,9.287 13.735,18.281 21.413,26.748 7.487,8.257 16.326,18.768 28.472,18.539 0.942,-0.017 0.942,1.446 0,1.463 -10.23,0.186 -17.982,-6.852 -24.664,-13.808 -8.003,-8.33 -15.366,-17.26 -22.267,-26.516 -14.554,-19.521 -28.048,-40.557 -39.484,-62.064 -0.284,-0.534 0.478,-0.976 0.808,-0.472"
         style="fill:#414142;fill-opacity:1;fill-rule:nonzero;stroke:none"
         id="path144" />
      <path
         d="m 393.8521,371.0171 c 10.869,17.017 21.75,33.774 34.445,49.524 5.864,7.276 11.895,14.515 18.414,21.218 6.894,7.088 14.949,13.508 25.132,14.449 0.969,0.09 0.973,1.621 0,1.523 -18.563,-1.871 -31.406,-20.061 -42.302,-33.35 -13.509,-16.475 -26.414,-34.08 -36.584,-52.842 -0.318,-0.587 0.536,-1.084 0.895,-0.522"
         style="fill:#414142;fill-opacity:1;fill-rule:nonzero;stroke:none"
         id="path148" />
      <path
         d="m 412.5937,382.063 c 8.693,12.499 17.634,24.702 27.823,36.042 4.703,5.235 9.597,10.29 14.658,15.179 6.624,6.4 14.298,14.652 24.449,12.732 0.993,-0.188 1.396,1.357 0.415,1.506 -7,1.066 -12.873,-1.691 -18.203,-6.062 -6.743,-5.528 -12.857,-12.059 -18.768,-18.451 -11.528,-12.464 -22.363,-25.944 -31.242,-40.438 -0.343,-0.56 0.504,-1.032 0.868,-0.508"
         style="fill:#414142;fill-opacity:1;fill-rule:nonzero;stroke:none"
         id="path152" />
      <path
         d="m 431.0898,389.9912 c 14.193,20.777 32.955,35.813 56.233,45.267 0.844,0.343 0.514,1.715 -0.386,1.401 -23.176,-8.091 -44.055,-25.169 -56.681,-46.181 -0.324,-0.539 0.487,-0.995 0.834,-0.487"
         style="fill:#414142;fill-opacity:1;fill-rule:nonzero;stroke:none"
         id="path156" />
      <path
         d="m 451.583,394.8208 c 12.643,12.857 26.556,22.371 44.073,27.278 0.924,0.259 0.533,1.692 -0.397,1.44 -16.856,-4.573 -33.456,-14.179 -44.38,-28.014 -0.386,-0.489 0.242,-1.173 0.704,-0.704"
         style="fill:#414142;fill-opacity:1;fill-rule:nonzero;stroke:none"
         id="path160" />
      <path
         d="m 469.6787,390.9194 c 10.962,6.78 21.385,12.135 33.872,15.646 0.824,0.232 0.478,1.454 -0.352,1.277 -11.961,-2.554 -24.784,-8.161 -34.076,-16.204 -0.394,-0.342 0.117,-0.99 0.556,-0.719"
         style="fill:#414142;fill-opacity:1;fill-rule:nonzero;stroke:none"
         id="path164" />
      <path
         d="m 486.5176,384.8506 c 8.866,0.912 17.805,3.249 26.521,5.085 0.912,0.192 0.523,1.569 -0.383,1.392 -8.692,-1.704 -17.788,-3.026 -26.252,-5.636 -0.439,-0.135 -0.387,-0.893 0.114,-0.841"
         style="fill:#414142;fill-opacity:1;fill-rule:nonzero;stroke:none"
         id="path168" />
      <path
         d="m 504.5303,372.9199 c 6.342,-0.54 12.948,0.064 19.184,1.305 0.899,0.179 0.499,1.482 -0.373,1.353 -6.293,-0.927 -12.471,-1.318 -18.811,-1.662 -0.646,-0.036 -0.635,-0.942 0,-0.996"
         style="fill:#414142;fill-opacity:1;fill-rule:nonzero;stroke:none"
         id="path172" />
      <path
         d="m 526.8174,360.0635 c 1.207,0.014 2.331,0.174 3.524,0.364 1.159,0.183 2.38,0.248 3.459,0.717 0.56,0.242 0.21,1.011 -0.284,1.048 -1.08,0.08 -2.204,-0.259 -3.267,-0.452 -1.213,-0.219 -2.376,-0.442 -3.546,-0.836 -0.444,-0.149 -0.389,-0.847 0.114,-0.841"
         style="fill:#414142;fill-opacity:1;fill-rule:nonzero;stroke:none"
         id="path176" />
      <path
         d="m 250.7354,391.9297 c 2.663,-5.222 6.207,-10.341 10.552,-14.313 0.563,-0.515 1.359,0.277 0.838,0.837 -4.048,4.353 -7.607,8.781 -10.505,13.994 -0.322,0.58 -1.183,0.067 -0.885,-0.518"
         style="fill:#414142;fill-opacity:1;fill-rule:nonzero;stroke:none"
         id="path180" />
      <path
         d="m 271.1782,396.9883 c 6.924,-13.89 15.208,-27.549 24.338,-40.101 0.488,-0.671 1.61,-0.052 1.135,0.663 -8.708,13.08 -16.848,26.278 -24.613,39.941 -0.319,0.561 -1.144,0.067 -0.86,-0.503"
         style="fill:#414142;fill-opacity:1;fill-rule:nonzero;stroke:none"
         id="path184" />
      <path
         d="m 292.7168,402.5327 c 3.954,-10.603 10.88,-20.625 17.835,-29.472 7.398,-9.411 15.931,-18.171 25.491,-25.4 0.616,-0.466 1.435,0.584 0.832,1.079 -8.879,7.282 -17.153,15.012 -24.386,23.965 -7.609,9.42 -13.04,19.723 -19.08,30.12 -0.209,0.359 -0.846,0.121 -0.692,-0.292"
         style="fill:#414142;fill-opacity:1;fill-rule:nonzero;stroke:none"
         id="path188" />
      <path
         d="m 312.623,408.4102 c 14.476,-21.568 36.076,-39.103 60.456,-48.241 0.852,-0.319 1.178,1.007 0.37,1.344 -24.303,10.146 -44.623,25.917 -59.941,47.415 -0.377,0.53 -1.257,0.036 -0.885,-0.518"
         style="fill:#414142;fill-opacity:1;fill-rule:nonzero;stroke:none"
         id="path192" />
      <path
         d="m 332.6987,415.9116 c 25.993,-15.756 55.273,-26.271 85.208,-31.354 0.888,-0.15 1.273,1.207 0.375,1.363 -30.13,5.254 -58.489,15.792 -85.085,30.842 -0.554,0.313 -1.04,-0.522 -0.498,-0.851"
         style="fill:#414142;fill-opacity:1;fill-rule:nonzero;stroke:none"
         id="path196" />
      <path
         d="m 352.7441,423.0947 c 38.179,8.694 77.104,-1.19 104.891,-29.248 0.466,-0.471 1.434,-0.145 1.38,0.572 -0.065,0.876 -0.129,1.425 -0.254,2.293 -0.116,0.806 -1.358,0.573 -1.378,-0.187 -0.043,-0.702 -0.038,-1.404 0.014,-2.106 0.461,0.191 0.921,0.382 1.382,0.572 -27.146,27.677 -68.69,39.914 -106.273,28.968 -0.556,-0.161 -0.324,-0.992 0.238,-0.864"
         style="fill:#414142;fill-opacity:1;fill-rule:nonzero;stroke:none"
         id="path200" />
      <path
         d="m 392.2461,443.5405 c 21.125,10.2 44.9,6.875 61.921,-9.482 7.986,-7.675 14.493,-16.805 21.33,-25.476 8.004,-10.15 15.802,-20.514 24.085,-30.437 0.486,-0.583 1.522,0.202 1.062,0.82 -8.337,11.227 -17.255,22.063 -25.913,33.045 -7.701,9.769 -15.2,20.224 -25.115,27.902 -16.199,12.546 -39.956,14.939 -57.868,4.48 -0.554,-0.324 -0.067,-1.125 0.498,-0.852"
         style="fill:#414142;fill-opacity:1;fill-rule:nonzero;stroke:none"
         id="path204" />
      <path
         d="m 428.4922,387.4077 c 0.238,0.197 0.421,0.299 0.591,0.568 0.233,0.374 -0.234,0.841 -0.607,0.607 -0.279,-0.175 -0.368,-0.347 -0.568,-0.591 -0.341,-0.412 0.172,-0.924 0.584,-0.584"
         style="fill:#414142;fill-opacity:1;fill-rule:nonzero;stroke:none"
         id="path208" />
      <path
         d="m 310.1836,350.4438 c 31.124,-18.488 64.507,-33.326 98.962,-44.4 9.847,-3.165 19.794,-6.002 29.817,-8.554 0.502,-0.128 0.716,0.649 0.214,0.776 -35.214,8.888 -69.431,21.69 -101.827,38.11 -9.092,4.609 -18.018,9.521 -26.833,14.637 -0.368,0.213 -0.698,-0.352 -0.333,-0.569"
         style="fill:#414142;fill-opacity:1;fill-rule:nonzero;stroke:none"
         id="path212" />
      <path
         d="m 308.4395,270.9395 0.497,-0.504 c 0.337,-0.343 0.871,0.191 0.528,0.528 -0.168,0.166 -0.336,0.331 -0.504,0.497 -0.338,0.333 -0.855,-0.183 -0.521,-0.521"
         style="fill:#414142;fill-opacity:1;fill-rule:nonzero;stroke:none"
         id="path216" />
      <path
         d="m 308.7002,270.8311 c 0.474,0 0.475,0.737 0,0.737 -0.475,0 -0.476,-0.737 0,-0.737"
         style="fill:#414142;fill-opacity:1;fill-rule:nonzero;stroke:none"
         id="path220" />
      <path
         d="m 416.2002,384.8315 c 0.475,0 0.475,0.737 0,0.737 -0.475,0 -0.476,-0.737 0,-0.737"
         style="fill:#414142;fill-opacity:1;fill-rule:nonzero;stroke:none"
         id="path224" />
      <path
         d="m 474.3271,389.0688 c -12.301,2.009 -23.357,-4.614 -32.45,-12.264 -9.965,-8.384 -18.577,-18.391 -25.607,-29.343 -13.984,-21.792 -21.548,-47.367 -21.547,-73.259 0,-0.903 1.404,-0.904 1.403,0 -0.019,24.343 6.701,48.324 19.233,69.193 6.238,10.387 13.886,19.938 22.723,28.23 9.837,9.23 21.91,18.137 36.127,16.572 0.492,-0.054 0.61,0.79 0.118,0.871"
         style="fill:#414142;fill-opacity:1;fill-rule:nonzero;stroke:none"
         id="path228" />
      <path
         d="m 509.4814,371.1377 c -23.142,2.957 -47.109,-8.45 -63.446,-24.205 -17.303,-16.687 -27.867,-39.012 -33.983,-61.987 -0.216,-0.813 1.041,-1.159 1.257,-0.347 5.919,22.259 15.997,43.839 32.464,60.28 17.229,17.203 39.488,25.992 63.708,25.502 0.501,-0.01 0.468,0.697 0,0.757"
         style="fill:#414142;fill-opacity:1;fill-rule:nonzero;stroke:none"
         id="path232" />
      <path
         d="m 546.7002,349.8213 c 0.487,0 0.487,0.757 0,0.757 -0.487,0 -0.488,-0.757 0,-0.757"
         style="fill:#414142;fill-opacity:1;fill-rule:nonzero;stroke:none"
         id="path236" />
      <path
         d="m 149.9185,361.0591 c 8.659,14.907 22.573,26.075 38.998,31.346 16.075,5.159 32.599,3.646 48.074,-2.721 28.601,-11.767 51.691,-36.511 82.926,-41.943 38.16,-6.637 68.513,22.053 101.097,36.262 19.093,8.326 39.264,11.008 58.731,2.308 16.081,-7.187 29.561,-18.902 44.878,-27.44 33.522,-18.685 76.442,-17.869 109.041,2.467 1.87,1.167 0.171,4.109 -1.733,2.966 -32.194,-19.326 -73.427,-20.597 -106.285,-2.104 -15.498,8.722 -29.195,20.593 -45.632,27.643 -16.694,7.162 -34.189,6.694 -51.213,0.824 -35.788,-12.341 -67.469,-46.735 -108.056,-39.923 -31.381,5.266 -54.769,30.431 -83.645,41.953 -16.197,6.463 -33.68,7.627 -50.268,1.828 -16.292,-5.694 -30.422,-17.22 -38.483,-32.549 -0.543,-1.032 0.98,-1.934 1.57,-0.917"
         style="fill:#414142;fill-opacity:1;fill-rule:nonzero;stroke:none"
         id="path240" />
      <path
         d="m 241.7207,387.9092 c 24.979,3.308 49.912,10.68 73.626,19.03 23.675,8.336 46.688,18.58 68.737,30.573 21.436,11.659 45.11,31.161 71.182,25.417 12.785,-2.816 21.235,-12.784 28.292,-23.105 6.423,-9.394 11.991,-19.336 17.483,-29.292 11.934,-21.634 23.81,-43.823 42.658,-60.328 1.488,-1.304 3.679,0.872 2.181,2.182 -17.855,15.608 -29.379,36.384 -40.69,56.883 -5.626,10.195 -11.261,20.407 -17.747,30.088 -5.878,8.775 -12.514,17.796 -22.032,22.879 -21.66,11.568 -45.979,-0.739 -64.857,-11.935 -23.232,-13.779 -47.168,-25.978 -72.362,-35.785 -28.298,-11.014 -57.22,-17.932 -86.736,-24.65 -1.071,-0.244 -0.861,-2.106 0.265,-1.957"
         style="fill:#414142;fill-opacity:1;fill-rule:nonzero;stroke:none"
         id="path244" />
      <path
         d="m 192.4189,392.8218 c 18.147,9.974 35.234,-11.397 45.608,-23.524 11.976,-14 22.164,-29.367 30.615,-45.728 13.423,-25.989 26.229,-56.012 57.577,-63.533 32.978,-7.911 66.446,7.939 94.608,23.496 15.285,8.445 30.258,17.51 46.104,24.893 16.678,7.772 34.217,13.524 51.915,18.47 39.071,10.921 79.274,18.185 116.664,34.432 2.052,0.892 0.279,3.892 -1.759,3.008 -34.096,-14.792 -70.691,-21.96 -106.455,-31.44 -17.354,-4.601 -34.602,-9.764 -51.216,-16.613 -15.957,-6.579 -30.972,-14.986 -45.967,-23.478 -29.923,-16.949 -64.694,-36.879 -100.493,-29.978 -34.686,6.687 -46.458,41.242 -61.534,68.582 -9.571,17.357 -21.363,33.503 -35.013,47.877 -10.18,10.722 -26.147,25.371 -41.659,15.256 -1.07,-0.697 -0.126,-2.342 1.005,-1.72"
         style="fill:#414142;fill-opacity:1;fill-rule:nonzero;stroke:none"
         id="path248" />
      <path
         d="m 632.5039,361.7241 c -8.416,-14.955 -21.05,-26.875 -37.548,-32.345 -17.647,-5.85 -37.14,-3.426 -53.136,5.866 -1.928,1.12 -3.68,-1.884 -1.746,-2.986 32.911,-18.754 78.146,-7.045 94.451,28.284 0.62,1.343 -1.269,2.517 -2.021,1.181"
         style="fill:#414142;fill-opacity:1;fill-rule:nonzero;stroke:none"
         id="path252" />
      <path
         d="m 149.9194,358.5742 c 14.221,7.849 29.028,13.37 45.332,14.734 15.829,1.324 31.032,-1.283 45.898,-6.656 1.961,-0.708 2.691,2.307 0.847,3.072 -29.099,12.066 -67.175,8.89 -93.133,-9.344 -1.087,-0.764 -0.141,-2.467 1.056,-1.806"
         style="fill:#414142;fill-opacity:1;fill-rule:nonzero;stroke:none"
         id="path256" />
      <path
         d="m 284.6045,299.0908 c 23.278,13.644 44.571,30.975 63.514,50.132 0.448,0.452 -0.251,1.153 -0.699,0.699 -19.05,-19.329 -40.312,-35.659 -63.225,-50.129 -0.441,-0.278 -0.044,-0.968 0.41,-0.702"
         style="fill:#414142;fill-opacity:1;fill-rule:nonzero;stroke:none"
         id="path260" />
      <path
         d="m 278.2788,365.2817 c 12.034,-13.334 24.082,-26.655 36.142,-39.965 9.771,-10.783 19.491,-21.974 31.621,-30.199 22.318,-15.132 51.633,-17.86 76.527,-7.741 0.594,0.241 0.335,1.221 -0.269,0.976 -25.848,-10.49 -56.063,-7.001 -78.569,9.611 -11.844,8.743 -21.473,20.148 -31.312,30.988 -11.177,12.312 -22.368,24.611 -33.568,36.902 -0.352,0.386 -0.92,-0.187 -0.572,-0.572"
         style="fill:#414142;fill-opacity:1;fill-rule:nonzero;stroke:none"
         id="path272" />
      <path
         d="m 235.7363,391.1147 c 25.636,-23.894 45.577,-51.347 62.512,-81.903 13.512,-24.381 35.877,-55.767 68.362,-46.163 0.647,0.191 0.372,1.205 -0.28,1.014 -36.703,-10.772 -57.827,29.293 -72.441,55.238 -15.206,26.998 -34.57,51.606 -57.578,72.389 -0.387,0.348 -0.959,-0.217 -0.575,-0.575"
         style="fill:#414142;fill-opacity:1;fill-rule:nonzero;stroke:none"
         id="path276" />
      <path
         d="m 220.9966,387.5811 c 9.255,0.826 18.31,-0.012 27.253,-2.564 0.615,-0.176 0.878,0.782 0.264,0.956 -9.024,2.564 -18.174,3.411 -27.517,2.506 -0.569,-0.054 -0.578,-0.949 0,-0.898"
         style="fill:#414142;fill-opacity:1;fill-rule:nonzero;stroke:none"
         id="path280" />
      <path
         d="m 242.6196,365.1006 c 15.995,3.916 31.415,2.994 46.168,-4.727 0.638,-0.334 1.202,0.623 0.566,0.968 -13.994,7.603 -31.772,9.942 -46.939,4.501 -0.461,-0.165 -0.282,-0.861 0.205,-0.742"
         style="fill:#414142;fill-opacity:1;fill-rule:nonzero;stroke:none"
         id="path284" />
      <path
         d="m 262.0898,334.9819 c 22.451,8.765 45.446,13.241 69.586,12.78 0.665,-0.013 0.662,1.007 0,1.031 -23.732,0.858 -48.142,-3.47 -69.905,-13.054 -0.425,-0.187 -0.119,-0.928 0.319,-0.757"
         style="fill:#414142;fill-opacity:1;fill-rule:nonzero;stroke:none"
         id="path288" />
      <path
         d="m 308.7065,269.6504 c 29.318,26.702 53.861,58.542 72.546,93.502 0.334,0.625 -0.615,1.182 -0.951,0.556 -18.762,-35 -43.166,-66.38 -72.197,-93.455 -0.402,-0.375 0.198,-0.971 0.602,-0.603"
         style="fill:#414142;fill-opacity:1;fill-rule:nonzero;stroke:none"
         id="path292" />
      <path
         d="m 356.9087,261.0029 c 17.103,49.233 37.874,99.621 81.134,131.615 0.547,0.404 0.021,1.33 -0.54,0.924 -43.433,-31.502 -64.825,-83.144 -81.408,-132.315 -0.174,-0.517 0.637,-0.735 0.814,-0.224"
         style="fill:#414142;fill-opacity:1;fill-rule:nonzero;stroke:none"
         id="path296" />
      <path
         d="m 437.6895,293.875 c 26.8,46.813 84.148,55.523 133.341,53.383 0.712,-0.031 0.71,1.075 0,1.105 -49.112,2.137 -107.86,-6.692 -134.07,-54.062 -0.262,-0.476 0.458,-0.899 0.729,-0.426"
         style="fill:#414142;fill-opacity:1;fill-rule:nonzero;stroke:none"
         id="path300" />
      <path
         d="m 355.3076,352.541 c 40.402,2.212 80.025,-12.306 108.149,-41.744 0.521,-0.544 1.346,0.283 0.827,0.827 -27.684,28.926 -68.853,45.493 -108.976,41.819 -0.569,-0.051 -0.587,-0.934 0,-0.902"
         style="fill:#414142;fill-opacity:1;fill-rule:nonzero;stroke:none"
         id="path304" />
      <path
         d="m 403.5195,377.9004 c 37.48,0.462 58.367,-31.802 76.006,-60.089 0.392,-0.63 1.378,-0.061 0.998,0.583 -16.227,27.504 -40.361,63.188 -77.004,60.326 -0.52,-0.04 -0.535,-0.826 0,-0.82"
         style="fill:#414142;fill-opacity:1;fill-rule:nonzero;stroke:none"
         id="path308" />
      <path
         d="m 309.2734,352.0103 c 41.001,-25.447 85.97,-44.567 132.912,-55.863 0.838,-0.201 1.195,1.085 0.357,1.292 -46.886,11.582 -91.657,30.032 -132.796,55.38 -0.515,0.318 -0.985,-0.492 -0.473,-0.809"
         style="fill:#414142;fill-opacity:1;fill-rule:nonzero;stroke:none"
         id="path312" />
      <path
         d="m 442.291,392.7012 c 25.348,-17.759 45.656,-41.295 59.287,-69.103 0.321,-0.655 1.295,-0.082 0.979,0.572 -13.486,27.805 -34.208,51.973 -59.792,69.341 -0.503,0.34 -0.963,-0.467 -0.474,-0.81"
         style="fill:#414142;fill-opacity:1;fill-rule:nonzero;stroke:none"
         id="path316" />
      <path
         d="m 479.6426,386.6475 c 16.589,-18.308 31.235,-37.091 43.317,-58.716 0.33,-0.592 1.225,-0.066 0.908,0.53 -11.324,21.25 -26.106,42.162 -43.687,58.725 -0.358,0.337 -0.867,-0.176 -0.538,-0.539"
         style="fill:#414142;fill-opacity:1;fill-rule:nonzero;stroke:none"
         id="path320" />
      <path
         d="m 521.3389,362.1504 c 6.95,-9.235 13.962,-18.5 21.261,-27.462 0.339,-0.417 1.075,0.142 0.751,0.579 -6.875,9.294 -14.111,18.381 -21.337,27.404 -0.301,0.376 -0.969,-0.13 -0.675,-0.521"
         style="fill:#414142;fill-opacity:1;fill-rule:nonzero;stroke:none"
         id="path324" />
      <path
         d="m 535.3896,355.0557 c 6.025,-6.403 12.147,-12.744 18.353,-18.973 0.439,-0.442 1.108,0.231 0.681,0.682 -6.038,6.39 -12.191,12.7 -18.409,18.916 -0.403,0.402 -1.014,-0.211 -0.625,-0.625"
         style="fill:#414142;fill-opacity:1;fill-rule:nonzero;stroke:none"
         id="path328" />
      <path
         d="m 549.2158,351.5547 c 4.394,-4.746 9.325,-9.146 14.554,-12.956 0.445,-0.324 1.031,0.425 0.593,0.77 -5.099,4.031 -9.902,8.237 -14.544,12.788 -0.394,0.385 -0.975,-0.2 -0.603,-0.602"
         style="fill:#414142;fill-opacity:1;fill-rule:nonzero;stroke:none"
         id="path332" />
      <path
         d="m 567.5967,347.7622 c 1.495,-2.544 4.291,-4.804 7.181,-5.516 0.482,-0.118 0.847,0.621 0.353,0.839 -2.842,1.257 -4.94,2.726 -6.862,5.195 -0.303,0.389 -0.912,-0.109 -0.672,-0.518"
         style="fill:#414142;fill-opacity:1;fill-rule:nonzero;stroke:none"
         id="path336" />
      <path
         d="m 287.6099,374.5659 c 0,-2.025 -1.642,-3.667 -3.667,-3.667 -2.025,0 -3.667,1.642 -3.667,3.667 0,2.025 1.642,3.667 3.667,3.667 2.025,0 3.667,-1.642 3.667,-3.667"
         style="fill:#28aae1;fill-opacity:1;fill-rule:nonzero;stroke:none"
         id="path348" />
      <path
         d="m 336.1289,416.8315 c 0,-2.025 -1.642,-3.667 -3.667,-3.667 -2.025,0 -3.666,1.642 -3.666,3.667 0,2.025 1.641,3.667 3.666,3.667 2.025,0 3.667,-1.642 3.667,-3.667"
         style="fill:#28aae1;fill-opacity:1;fill-rule:nonzero;stroke:none"
         id="path352" />
      <path
         d="m 466.3232,442.0923 c 0,-1.438 -1.165,-2.604 -2.604,-2.604 -1.438,0 -2.604,1.166 -2.604,2.604 0,1.438 1.166,2.604 2.604,2.604 1.439,0 2.604,-1.166 2.604,-2.604"
         style="fill:#28aae1;fill-opacity:1;fill-rule:nonzero;stroke:none"
         id="path356" />
      <path
         d="m 411.374,405.7783 c 0,-3.25 -2.635,-5.886 -5.886,-5.886 -3.25,0 -5.885,2.636 -5.885,5.886 0,3.25 2.635,5.885 5.885,5.885 3.251,0 5.886,-2.635 5.886,-5.885"
         style="fill:#28aae1;fill-opacity:1;fill-rule:nonzero;stroke:none"
         id="path360" />
      <path
         d="m 320.3701,326.6538 c 3.044,-1.958 3.924,-6.014 1.966,-9.058 -1.958,-3.044 -6.014,-3.924 -9.058,-1.965 -3.044,1.958 -3.924,6.013 -1.966,9.057 1.959,3.044 6.014,3.924 9.058,1.966"
         style="fill:#28aae1;fill-opacity:1;fill-rule:nonzero;stroke:none"
         id="path364" />
      <path
         d="m 399.957,291.2979 c 4.493,-2.891 5.792,-8.876 2.901,-13.369 -2.89,-4.493 -8.876,-5.792 -13.369,-2.902 -4.493,2.891 -5.792,8.876 -2.902,13.37 2.891,4.493 8.876,5.792 13.37,2.901"
         style="fill:#28aae1;fill-opacity:1;fill-rule:nonzero;stroke:none"
         id="path368" />
      <path
         d="m 460.9941,351.3003 c 0,-3.835 -3.108,-6.944 -6.943,-6.944 -3.835,0 -6.944,3.109 -6.944,6.944 0,3.834 3.109,6.943 6.944,6.943 3.835,0 6.943,-3.109 6.943,-6.943"
         style="fill:#28aae1;fill-opacity:1;fill-rule:nonzero;stroke:none"
         id="path372" />
    </g>
  </g>
</svg>
